<?xml version="1.0" encoding="UTF-8"?>
<svg xmlns="http://www.w3.org/2000/svg" width="256" height="256" viewBox="0 0 256 256" role="img" aria-label="Sosho mark">
  <defs>
    <linearGradient id="gMark" x1="0" y1="0" x2="1" y2="1">
      <stop offset="0%" stop-color="#22D3EE"/>
      <stop offset="55%" stop-color="#6366F1"/>
      <stop offset="100%" stop-color="#F472B6"/>
    </linearGradient>
    <filter id="softGlow" x="-30%" y="-30%" width="160%" height="160%">
      <feGaussianBlur stdDeviation="3" result="blur"/>
      <feMerge>
        <feMergeNode in="blur"/>
        <feMergeNode in="SourceGraphic"/>
      </feMerge>
    </filter>
  </defs>
  <g transform="translate(78,48)" filter="url(#softGlow)">
    <path d="M110 10
             L40 10
             C18 10 2 26 2 48
             C2 70 18 86 40 86
             L95 86
             L78 108
             L40 108
             C7 108 -20 81 -20 48
             C-20 15 7 -12 40 -12
             L110 -12
             Z"
          fill="url(#gMark)"/>
    <path d="M-12 136
             L58 136
             C80 136 96 120 96 98
             C96 76 80 60 58 60
             L3 60
             L20 38
             L58 38
             C91 38 118 65 118 98
             C118 131 91 158 58 158
             L-12 158
             Z"
          fill="url(#gMark)" opacity="0.95"/>
    <path d="M118 -6 L123 6 L136 11 L123 16 L118 28 L113 16 L100 11 L113 6 Z"
          fill="#E0F2FE"/>
  </g>
</svg>
